<?xml version="1.0" encoding="UTF-8"?>
<svg xmlns="http://www.w3.org/2000/svg"
  xmlns:xlink="http://www.w3.org/1999/xlink" viewBox="0 0 30 30">
  <defs>
    <style>.cls-1{fill:none;clip-rule:evenodd;}.cls-2{clip-path:url(#clip-path);}.cls-3{fill:#ccc;}.cls-4{clip-path:url(#clip-path-2);}.cls-5{clip-path:url(#clip-path-3);}.cls-6{clip-path:url(#clip-path-4);}</style>
    <clipPath id="clip-path">
      <path class="cls-1" d="M4.27,8.46l2.42,1,7.47,2.95a.31.31,0,0,1,.24.35q0,6.63,0,13.26v.27l-.26-.09L4.51,22.36A.31.31,0,0,1,4.26,22q0-6.64,0-13.28Z"/>
    </clipPath>
    <clipPath id="clip-path-2">
      <path class="cls-1" d="M15.52,26.24V26q0-6.63,0-13.26a.31.31,0,0,1,.24-.35l4-1.58.25-.1V11q0,1.63,0,3.26c0,.41.21.65.56.65s.56-.24.56-.65q0-1.89,0-3.77c0-.12,0-.21.15-.27L25.55,8.5l.1,0v.25q0,6.64,0,13.28a.3.3,0,0,1-.22.34l-9.67,3.81-.24.08"/>
    </clipPath>
    <clipPath id="clip-path-3">
      <path class="cls-1" d="M10.88,5.43l.25-.11,3.65-1.44a.49.49,0,0,1,.33,0l9.36,3.69.18.08-.2.1-3.7,1.45a.46.46,0,0,1-.31,0L11,5.5l-.15-.07"/>
    </clipPath>
    <clipPath id="clip-path-4">
      <path class="cls-1" d="M19,9.88l-.47.19-3.44,1.35a.49.49,0,0,1-.33,0L5.44,7.73l-.18-.08.21-.1L9.17,6.1a.49.49,0,0,1,.33,0l9.32,3.68.23.1"/>
    </clipPath>
  </defs>
  <title>icon-box</title>
  <g id="Layer_2" data-name="Layer 2">
    <g class="cls-2">
      <rect class="cls-3" x="1.45" y="5.65" width="15.77" height="23.41"/>
    </g>
    <g class="cls-4">
      <rect class="cls-3" x="12.7" y="5.67" width="15.77" height="23.4"/>
    </g>
    <g class="cls-5">
      <rect class="cls-3" x="8.06" y="1.03" width="19.4" height="11.02"/>
    </g>
    <g class="cls-6">
      <rect class="cls-3" x="2.45" y="3.25" width="19.41" height="11.01"/>
    </g>
  </g>
</svg>
